<svg xmlns:xlink="http://www.w3.org/1999/xlink" xmlns="http://www.w3.org/2000/svg" width="185px" height="119px" viewbox="0 0 185 119"><g id="Group" transform="translate(0.31103516 0.31106567)"><path d="M40.5499 33.1152C39.4642 29.2358 38.045 25.1239 36.7559 21.1209C34.9852 15.6227 35.5709 12.8476 29.6961 12.1316L32.8997 22.7919C25.9257 19.7196 6.21033 2.21337 0 0C0.274106 6.13931 1.1664 4.96765 8.46686 10.4621C13.5036 14.2528 38.2937 32.5495 40.5499 33.1152L40.5499 33.1152Z" transform="translate(56.297607 84.98291)" id="path4" fill="#F06A83" fill-rule="evenodd" stroke="none"></path><path d="M35.5998 25.0569C29.225 21.3207 6.21273 1.91349 0 0C0.70918 8.42125 -1.13778 6.60831 15.6179 15.0065C21.8783 18.1443 29.9906 23.3358 35.5998 25.0569L35.5998 25.0569Z" transform="translate(57.21045 93.09253)" id="path6" fill="#F6AFC0" fill-rule="evenodd" stroke="none"></path><path d="M21.0946 11.1478C19.754 10.3527 13.905 5.80872 12.7343 3.83323L51.9355 3.78767C51.4697 1.59545 51.0127 1.98075 49.7426 0.123013L0 0C2.58159 2.93414 6.45898 5.25933 9.80614 7.66583C13.991 10.6746 14.9741 13.2475 21.0946 11.1478Z" transform="translate(0 46.781555)" id="path8" fill="#A49ECA" fill-rule="evenodd" stroke="none"></path><path d="M0 5.55779L40.2048 5.60181C35.8604 -3.36597 29.3071 0.514905 11.4327 3.0666C9.4693 3.3466 7.47442 3.63751 5.51564 3.93358L0 5.55779Z" transform="translate(6.3637695 39.020264)" id="path10" fill="#D1CDE6" fill-rule="evenodd" stroke="none"></path><path d="M3.44418 41.9723L4.45677 41.9723L4.84692 41.8536C4.93424 41.8334 5.03397 41.8076 5.15441 41.7718C5.39259 41.7009 5.59043 41.6483 5.81408 41.5625C6.72508 41.2137 12.5015 37.8397 13.4155 37.3042C16.1947 35.6761 19.317 33.9865 22.0703 32.3459C24.9657 30.6203 27.8177 29.0847 30.7191 27.3868L33.9946 25.4978C35.6562 24.5716 37.8886 23.3455 37.8491 20.9177C37.8072 18.33 35.2302 17.2561 33.8295 16.3757C33.4685 16.1488 33.1251 15.9736 32.7581 15.7661L21.9912 9.57492C20.5625 8.7603 19.0567 7.9354 17.6423 7.085C16.233 6.23764 14.719 5.48579 13.3321 4.62163C11.6632 3.58159 8.69623 1.94913 6.85606 0.909596C5.51235 0.15046 4.74732 0.187191 4.40723 0L3.28526 0C2.95286 0.186784 2.51276 0.225327 2.14236 0.419176C-0.54811 1.82694 0.0586194 6.22609 0.0586194 8.98459L0.0586194 33.256C0.0586194 34.9464 -0.10185 37.6272 0.319908 39.093C0.644605 40.2219 1.32312 41.1894 2.32801 41.6384C2.66566 41.7895 3.20885 41.862 3.44418 41.9723L3.44418 41.9723Z" transform="translate(48.445312 44.50296)" id="path12" fill="#FAD2D3" fill-rule="evenodd" stroke="none"></path><path d="M0 48.4813C3.35436 47.2207 6.8724 44.1274 9.75301 42.003C13.9979 38.8719 17.0098 38.7548 16.9053 32.33L7.682 38.4937L19.5638 0C12.5378 1.88894 12.5816 8.8666 8.23868 22.2428C5.71945 30.0015 1.19335 41.2695 0 48.4813Z" transform="translate(21.73584 64.15747)" id="path14" fill="#F5CD6D" fill-rule="evenodd" stroke="none"></path><path d="M21.0848 4.61274L31.3302 4.66523C27.576 10.7199 3.44381 23.8625 0 29.3408C7.21635 30.6258 12.2916 24.3664 22.7535 16.8922C26.4118 14.2784 29.7197 11.6891 33.2788 9.16453C36.7575 6.6968 41.23 3.94011 44.0193 0.895549C38.6485 0.293666 22.0533 -2.06287 21.0848 4.61274Z" transform="translate(79.765625 45.93799)" id="path16" fill="#CCDD66" fill-rule="evenodd" stroke="none"></path><path d="M1.49391 23.327C3.73744 21.1074 4.46782 16.3074 5.73323 12.8055C10.5884 19.8646 14.0989 43.4187 18.8418 50.7451C22.6058 47.0904 20.6468 44.2695 18.9216 39.1899C17.0403 33.6518 8.34534 3.60523 5.48081 0C2.01785 13.652 -2.341 16.3524 1.49391 23.327Z" transform="translate(56.24243 0)" id="path18" fill="#61B9C8" fill-rule="evenodd" stroke="none"></path><path d="M0.010548 41.9177C0.85737 35.746 11.6771 9.28193 13.0646 0C4.2125 2.63309 5.81053 4.63974 3.55541 17.8013C2.36527 24.7468 -0.184116 35.5138 0.010548 41.9177L0.010548 41.9177Z" transform="translate(20.5896 67.58234)" id="path20" fill="#FFE1A5" fill-rule="evenodd" stroke="none"></path><path d="M0 25.7768L7.94519 26.858C12.5411 19.6438 30.4979 5.59341 34.1518 0C30.2879 2.07523 1.64396 22.6652 0 25.7768Z" transform="translate(87.89111 51.14218)" id="path22" fill="#EEEE9D" fill-rule="evenodd" stroke="none"></path><path d="M13.7219 41.2284C18.5279 34.1002 17.1411 34.609 10.2596 20.6013C7.01657 13.9999 2.35871 5.89088 0 0C1.43765 6.03659 10.9851 37.9378 13.7219 41.2284L13.7219 41.2284Z" transform="translate(65.50659 2.1980896)" id="path24" fill="#ADDDDB" fill-rule="evenodd" stroke="none"></path><path d="M2.69255 2.61153L7.83504 2.61153C10.7968 2.61153 10.743 7.51188 7.78127 7.51188L2.69255 7.51188L2.69255 2.61153ZM0 0.0267222L0 18.847L8.50816 18.847C12.1161 18.847 13.974 15.993 13.974 13.166C13.974 11.3889 13.193 9.39661 11.0391 8.48108C12.9238 7.13482 13.166 4.98088 12.4124 3.12301C11.7123 1.37284 10.2044 0.0267222 7.83504 0.0267222L0 0.0267222ZM2.69255 10.2042L8.50816 10.2042C10.339 10.2042 11.2545 11.7119 11.2545 13.1927C11.2545 14.6737 10.339 16.2083 8.50816 16.2083L2.69255 16.2083L2.69255 10.2042ZM19.0627 10.5812L25.9285 18.847L29.4366 18.847L23.5054 11.7657C26.7362 11.2004 28.3785 8.66954 28.3785 6.00398C28.3785 3.0153 26.3323 0 22.2397 0L15.3739 0L15.3739 18.847L18.0666 18.847L18.0666 2.74618L22.2397 2.74618C24.5282 2.74618 25.6593 4.38851 25.6593 6.00398C25.6593 7.64644 24.5282 9.28877 22.2397 9.28877L19.0627 9.28877L19.0627 10.5812Z" transform="translate(49.778564 55.66458)" id="path26" fill="#3B3B3B" fill-rule="evenodd" stroke="none"></path><path d="M2.71937 5.81579L7.64658 13.1396L9.18143 13.1396L14.1086 5.81579L14.1086 19.0899L16.8007 19.0899L16.8007 0.242402L14.6471 0.242402L8.52008 9.40354L2.11132 0.225689L0 0.242402L0 19.0899L2.71937 19.0899L2.71937 5.81579ZM25.9555 4.33497L28.2708 10.9855L23.586 10.9855L25.9555 4.33497ZM31.5829 19.0899L34.4909 19.0899L26.9246 0L24.9321 0L17.366 19.0899L20.3013 19.0899C20.8933 17.5282 21.8357 15.2664 22.5626 13.5433L29.3211 13.5433L31.5829 19.0899ZM34.1676 9.71999C34.1676 12.3319 35.2446 14.7011 36.8597 16.4245C38.5026 18.1475 40.818 19.2243 43.3756 19.2243C47.7645 19.2243 51.2107 16.3167 52.2879 12.0354L49.6225 12.0354C48.6529 14.8896 46.2296 16.5319 43.3756 16.5319C41.5718 16.5319 39.9292 15.751 38.7447 14.5128C37.5599 13.274 36.8062 11.6047 36.8062 9.71999C36.8062 7.7815 37.5599 6.11195 38.7447 4.87367C39.9292 3.63499 41.5718 2.85429 43.3756 2.85429C46.1491 2.85429 48.4644 4.28103 49.4607 7.10824L52.1533 7.10824C51.0763 2.85429 47.6834 0.161647 43.3756 0.161647C40.818 0.161647 38.5026 1.26564 36.8597 2.962C35.2446 4.68508 34.1676 7.05457 34.1676 9.71999ZM56.3264 0.269351L53.6071 0.269351L53.6071 19.0899L56.3264 19.0899L56.3264 10.9047L64.2964 10.9047L64.2964 19.0899L67.0427 19.0899L67.0427 0.269351L64.2964 0.269351L64.2964 8.21209L56.3264 8.21209L56.3264 0.269351ZM77.9205 0.269351L68.2005 0.269351L68.2005 2.962L71.7011 2.962L71.7011 16.3703L68.2005 16.3703L68.2005 19.0899L77.9205 19.0899L77.9205 16.3703L74.4204 16.3703L74.4204 2.962L77.9205 2.962L77.9205 0.269351ZM81.9862 19.0899L81.9862 5.92336L91.087 19.0899L93.2406 19.0899L93.2406 0.242402L90.5485 0.242402L90.5485 13.5164L81.367 0.242402L79.2669 0.21568L79.2669 19.0899L81.9862 19.0899ZM97.7374 11.0392L106.273 11.0392L106.273 8.29285L97.7374 8.29285L97.7374 2.98872L106.461 2.98872L106.461 0.269351L94.9911 0.269351L94.9911 19.0899L106.488 19.0899L106.488 16.3703L97.7374 16.3703L97.7374 11.0392Z" transform="translate(77.06128 74.23541)" id="path28" fill="#3B3B3B" fill-rule="evenodd" stroke="none"></path><path d="M0 0.480818C1.29902 2.19557 1.30608 2.19439 1.30608 2.19439L1.24892 0L0 0.480818Z" transform="translate(75.81665 74.05734)" id="path30" fill="#3B3B3B" fill-rule="evenodd" stroke="#3B3B3B" stroke-width="0.62214077"></path></g></svg>