<svg xmlns="http://www.w3.org/2000/svg" width="177" height="49"><g fill="none"><path fill="#FFF" d="M99.525 10.078l1.999-5.749 1.889 5.75h-3.888zM104.263 0h-5.368L92.4 17.6h4.706l1.248-3.715h6.13l.41 1.25c.596 1.817 1.49 2.465 3.523 2.465h2.463L104.263 0zM64.642 14.003c-2.602 0-3.492-1.905-3.492-4.855s1.285-4.729 3.492-4.729c2.59 0 3.546 1.906 3.546 4.73 0 3.075-1.263 4.854-3.546 4.854m0-14.003C60.47 0 56.32 2.996 56.32 9.183c0 5.968 3.47 9.297 8.322 9.297 4.39 0 8.398-3.042 8.398-9.297C73.04 3.317 69.549 0 64.642 0M83.62 8.091h-2.193v-4.12h2.295c2.158 0 2.893.602 2.893 2.055 0 1.452-.86 2.065-3.042 2.065m5.257 2.86a5.155 5.155 0 002.916-4.902C91.746 2.077 89.38 0 84.342 0H76.56v17.578h4.867v-5.594h3.053l1.389 3.04c.514 1.672 2.158 2.744 3.914 2.554H92.4l-3.57-6.627zM158.4 0h4.828l4.502 7.954L172.007 0h2.51c1.721 0 2.363.807 2.363 2.386V17.6h-4.57V7.01l-2.97 5.534h-3.377l-3.039-5.534V17.6h-4.501L158.4 0zm-9.68 0h2.797C153.253 0 154 .807 154 2.386V17.6h-5.28V0zm-1.76 4.352h-5.292V17.6h-5.048V4.352h-5.5V0h13.437c1.687 0 2.403.807 2.403 2.386v1.966zM113.52 0h4.45l6.747 10.056V0h2.276c1.661 0 2.367.807 2.367 2.386V17.6h-4.404l-6.827-9.76v9.76h-4.609V0zM54.56 4.352h-5.292V17.6H44.22V4.352h-5.5V0h13.437c1.687 0 2.403.807 2.403 2.386v1.966zm-25.118 9.617c-2.536 0-3.492-1.905-3.492-4.82 0-2.916 1.285-4.73 3.492-4.73 2.601 0 3.546 1.906 3.546 4.73 0 3.075-1.263 4.854-3.546 4.854m0-14.003C25.27 0 21.12 2.996 21.12 9.183c0 5.968 3.47 9.297 8.322 9.297 4.39 0 8.398-3.042 8.398-9.297C37.84 3.317 34.349 0 29.442 0M6.56 2.79l-.124-.393C5.843.617 4.601 0 2.552 0H0l5.91 14.563C6.716 16.48 7.836 17.6 9.873 17.6a4.038 4.038 0 001.567-.28L6.56 2.789zM14.333 0l-3.624 9.86a2.896 2.896 0 000 1.834l1.646 5.026a5.42 5.42 0 001.182-1.924L19.36 0h-5.027z"></path><path fill="#F240C9" d="M103.84 38.283h-8.002c.078.818.48 1.57 1.113 2.08a2.94 2.94 0 002.244.63c.702.008 1.403-.053 2.093-.183a9.37 9.37 0 002.093-.728v2.755a7.755 7.755 0 01-2.238.876c-.811.19-1.641.285-2.474.285a6.38 6.38 0 01-3.234-.786 5.566 5.566 0 01-2.238-2.276 7.389 7.389 0 01-.795-3.507 7.214 7.214 0 01.817-3.517 5.828 5.828 0 015.126-3.108 5.234 5.234 0 013.928 1.56 6.748 6.748 0 011.511 4.872l.056 1.047zm-3.268-2.186a2.634 2.634 0 00-.66-1.855 2.02 2.02 0 00-1.511-.638 2.458 2.458 0 00-1.634.581 2.991 2.991 0 00-.907 1.901l4.712.011zm17.108-3.927a5.615 5.615 0 011.11 3.72V44h-3.56v-7.636c0-1.517-.609-2.317-1.84-2.317a3.828 3.828 0 00-2.46 1.159v8.76h-3.57V31.15h1.796c.82-.064 1.549.542 1.674 1.39a6.512 6.512 0 011.762-1.285 4.592 4.592 0 012.062-.452 3.75 3.75 0 013.027 1.367m14.315 6.114h-8.019a3.04 3.04 0 001.117 2.08 2.959 2.959 0 002.252.63c.705.008 1.408-.053 2.1-.183a9.626 9.626 0 002.101-.728v2.755c-.7.407-1.458.703-2.246.876a11.02 11.02 0 01-2.494.285 6.488 6.488 0 01-3.2-.785 5.553 5.553 0 01-2.247-2.277 7.241 7.241 0 01-.797-3.507 7.195 7.195 0 01.82-3.518 5.818 5.818 0 015.144-3.108 5.263 5.263 0 013.942 1.56 6.733 6.733 0 011.505 4.872l.022 1.048zm-3.268-2.186a2.676 2.676 0 00-.618-1.856 2.04 2.04 0 00-1.561-.626 2.472 2.472 0 00-1.64.58 2.987 2.987 0 00-.91 1.902h4.729zm14.712-5.123v3.066a11.863 11.863 0 00-.98-.186 7.842 7.842 0 00-.955 0 4.865 4.865 0 00-3.124 1.015v8.25h-3.741V30.996h1.807c.874-.078 1.662.497 1.795 1.31.953-.924 2.253-1.464 3.624-1.506.516-.002 1.03.06 1.527.186m14.127 2.29a9.12 9.12 0 00-2.009.188 4.41 4.41 0 01.448 2.011c.071 1.251-.532 2.45-1.596 3.172a7.264 7.264 0 01-4.132 1.105 6.521 6.521 0 01-.769 0l-.264 1.436c.663-.07 1.33-.103 1.997-.099a7.423 7.423 0 013.765.85c.958.564 1.521 1.585 1.47 2.664.084 1.25-.642 2.42-1.825 2.94a10.797 10.797 0 01-4.592.85 17.184 17.184 0 01-3.18-.287 8.78 8.78 0 01-2.513-.762v-2.675c.782.303 1.593.529 2.422.675.852.15 1.716.228 2.583.232a10.43 10.43 0 002.536-.232c.574-.166.85-.465.85-.918a.808.808 0 00-.586-.84 6.116 6.116 0 00-1.894-.21c-1.38 0-2.76.074-4.132.222l.895-4.498a4.675 4.675 0 01-1.916-1.503 3.755 3.755 0 01-.69-2.21c-.058-1.292.542-2.53 1.608-3.316a8.102 8.102 0 017.76-.364 7.69 7.69 0 013.718-.906l.046 2.475zm-5.555 3.47c.45-.36.69-.908.642-1.47.02-.56-.22-1.098-.654-1.47a2.76 2.76 0 00-1.745-.508 2.639 2.639 0 00-1.733.53 1.76 1.76 0 00-.643 1.448 1.736 1.736 0 00.62 1.47c.507.36 1.128.536 1.756.497a2.784 2.784 0 001.757-.497m7.935-8.016a1.813 1.813 0 01-.62-1.347c0-.506.223-.991.62-1.348a2.39 2.39 0 011.561-.514 2.458 2.458 0 011.585.514c.426.343.658.84.632 1.353.024.513-.213 1.007-.644 1.342a2.546 2.546 0 01-1.598.492 2.396 2.396 0 01-1.56-.492m-.372 2.012h1.982c.577-.039 1.139.183 1.498.593a2.48 2.48 0 01.484 1.61V43.12h-3.964V30.742zm15.191 1.433a5.61 5.61 0 011.293 3.978v7.614h-1.39a1.61 1.61 0 01-1.174-.412 1.824 1.824 0 01-.533-1.04 8.756 8.756 0 01-1.728 1.223 4.275 4.275 0 01-1.955.458 3.773 3.773 0 01-2.739-1.006 3.91 3.91 0 01-1.021-2.904 3.7 3.7 0 011.217-2.916 5.055 5.055 0 013.434-1.063 9.35 9.35 0 012.738.446v-.377a2.354 2.354 0 00-.652-1.83 2.984 2.984 0 00-2.021-.582 9.16 9.16 0 00-3.912.857v-2.664a10.01 10.01 0 014.64-1.143 5.004 5.004 0 013.803 1.36m-4.596 9.078a4.154 4.154 0 001.27-.24 5.52 5.52 0 001.468-.732v-1.703a12.72 12.72 0 00-2.25-.195c-1.38 0-2.064.492-2.064 1.487 0 .994.522 1.383 1.576 1.383"></path></g></svg>